<svg width="15" height="15" viewBox="0 0 15 15" fill="none" xmlns="http://www.w3.org/2000/svg">
<path d="M7.5 5.20833C6.37242 5.20833 5.45833 6.12242 5.45833 7.25C5.45833 8.37758 6.37242 9.29167 7.5 9.29167C8.62758 9.29167 9.54167 8.37758 9.54167 7.25C9.54167 6.12242 8.62758 5.20833 7.5 5.20833ZM7.5 2C3.63425 2 0.5 6.375 0.5 7.25C0.5 8.125 3.63425 12.5 7.5 12.5C11.3657 12.5 14.5 8.125 14.5 7.25C14.5 6.375 11.3657 2 7.5 2ZM7.5 10.4583C5.72783 10.4583 4.29167 9.02217 4.29167 7.25C4.29167 5.47783 5.72783 4.04167 7.5 4.04167C9.27217 4.04167 10.7083 5.47783 10.7083 7.25C10.7083 9.02217 9.27217 10.4583 7.5 10.4583Z" fill="#9E9EA7"/>
</svg>
